<svg width="105" height="20" viewBox="0 0 105 20" fill="none" xmlns="http://www.w3.org/2000/svg">
<path d="M7.58807 0.954545H10.6278V11.0966C10.6278 12.0341 10.4171 12.8485 9.99574 13.5398C9.57907 14.2311 8.99905 14.7637 8.25568 15.1378C7.51231 15.5118 6.6482 15.6989 5.66335 15.6989C4.78741 15.6989 3.99195 15.545 3.27699 15.2372C2.56676 14.9247 2.00331 14.4512 1.58665 13.8168C1.16998 13.1776 0.964015 12.375 0.96875 11.4091H4.02983C4.0393 11.7926 4.11742 12.1217 4.2642 12.3963C4.41572 12.6662 4.62169 12.8745 4.8821 13.0213C5.14725 13.1634 5.45975 13.2344 5.8196 13.2344C6.19839 13.2344 6.51799 13.1539 6.77841 12.9929C7.04356 12.8272 7.24479 12.5857 7.3821 12.2685C7.51941 11.9512 7.58807 11.5606 7.58807 11.0966V0.954545ZM16.2244 15.706C15.5284 15.706 14.9081 15.5852 14.3636 15.3438C13.8191 15.0975 13.3883 14.7353 13.071 14.2571C12.7585 13.7741 12.6023 13.1728 12.6023 12.4531C12.6023 11.8471 12.7135 11.3381 12.9361 10.9261C13.1586 10.5142 13.4616 10.1828 13.8452 9.93182C14.2287 9.68087 14.6643 9.49148 15.152 9.36364C15.6444 9.2358 16.1605 9.14583 16.7003 9.09375C17.3348 9.02746 17.8461 8.96591 18.2344 8.90909C18.6226 8.84754 18.9044 8.75758 19.0795 8.6392C19.2547 8.52083 19.3423 8.34564 19.3423 8.11364V8.07102C19.3423 7.62121 19.2003 7.2732 18.9162 7.02699C18.6368 6.78078 18.2391 6.65767 17.723 6.65767C17.1785 6.65767 16.7453 6.77841 16.4233 7.01989C16.1013 7.25663 15.8883 7.55492 15.7841 7.91477L12.9858 7.6875C13.1278 7.02462 13.4072 6.4517 13.8239 5.96875C14.2405 5.48106 14.7779 5.10701 15.4361 4.84659C16.099 4.58144 16.866 4.44886 17.7372 4.44886C18.3433 4.44886 18.9233 4.51989 19.4773 4.66193C20.036 4.80398 20.5308 5.02415 20.9616 5.32244C21.3973 5.62074 21.7405 6.00426 21.9915 6.47301C22.2424 6.93703 22.3679 7.49337 22.3679 8.14205V15.5H19.4986V13.9872H19.4134C19.2382 14.3281 19.0038 14.6288 18.7102 14.8892C18.4167 15.1449 18.0639 15.3461 17.652 15.4929C17.2401 15.6349 16.7642 15.706 16.2244 15.706ZM17.0909 13.6179C17.536 13.6179 17.929 13.5303 18.2699 13.3551C18.6108 13.1752 18.8783 12.9337 19.0724 12.6307C19.2666 12.3277 19.3636 11.9844 19.3636 11.6009V10.4432C19.2689 10.5047 19.1387 10.5616 18.973 10.6136C18.812 10.661 18.6297 10.706 18.4261 10.7486C18.2225 10.7865 18.0189 10.822 17.8153 10.8551C17.6117 10.8835 17.4271 10.9096 17.2614 10.9332C16.9063 10.9853 16.5961 11.0682 16.331 11.1818C16.0658 11.2955 15.8598 11.4493 15.7131 11.6435C15.5663 11.8329 15.4929 12.0696 15.4929 12.3537C15.4929 12.7656 15.642 13.0805 15.9403 13.2983C16.2434 13.5114 16.6269 13.6179 17.0909 13.6179ZM24.7152 19.5909V4.59091H27.6982V6.4233H27.8331C27.9657 6.12973 28.1574 5.83144 28.4084 5.52841C28.6641 5.22064 28.9955 4.96496 29.4027 4.76136C29.8146 4.55303 30.326 4.44886 30.9368 4.44886C31.7322 4.44886 32.4661 4.6572 33.1385 5.07386C33.8108 5.4858 34.3482 6.10843 34.7507 6.94176C35.1532 7.77036 35.3544 8.80966 35.3544 10.0597C35.3544 11.2765 35.1579 12.304 34.7649 13.142C34.3767 13.9754 33.8464 14.6075 33.174 15.0384C32.5064 15.4645 31.7583 15.6776 30.9297 15.6776C30.3426 15.6776 29.843 15.5805 29.4311 15.3864C29.0239 15.1922 28.6901 14.9484 28.4297 14.6548C28.1693 14.3565 27.9704 14.0559 27.8331 13.7528H27.7408V19.5909H24.7152ZM27.6768 10.0455C27.6768 10.6941 27.7668 11.2599 27.9467 11.7429C28.1267 12.2259 28.3871 12.6023 28.728 12.8722C29.0689 13.1373 29.4832 13.2699 29.9709 13.2699C30.4633 13.2699 30.88 13.1349 31.2209 12.8651C31.5618 12.5904 31.8198 12.2116 31.995 11.7287C32.175 11.241 32.2649 10.6799 32.2649 10.0455C32.2649 9.41572 32.1773 8.86174 32.0021 8.38352C31.8269 7.9053 31.5689 7.53125 31.228 7.26136C30.8871 6.99148 30.468 6.85653 29.9709 6.85653C29.4785 6.85653 29.0618 6.98674 28.7209 7.24716C28.3847 7.50758 28.1267 7.87689 27.9467 8.35511C27.7668 8.83333 27.6768 9.39678 27.6768 10.0455ZM40.4822 15.706C39.7862 15.706 39.166 15.5852 38.6214 15.3438C38.0769 15.0975 37.6461 14.7353 37.3288 14.2571C37.0163 13.7741 36.8601 13.1728 36.8601 12.4531C36.8601 11.8471 36.9714 11.3381 37.1939 10.9261C37.4164 10.5142 37.7195 10.1828 38.103 9.93182C38.4865 9.68087 38.9221 9.49148 39.4098 9.36364C39.9022 9.2358 40.4183 9.14583 40.9581 9.09375C41.5926 9.02746 42.1039 8.96591 42.4922 8.90909C42.8804 8.84754 43.1622 8.75758 43.3374 8.6392C43.5125 8.52083 43.6001 8.34564 43.6001 8.11364V8.07102C43.6001 7.62121 43.4581 7.2732 43.174 7.02699C42.8946 6.78078 42.4969 6.65767 41.9808 6.65767C41.4363 6.65767 41.0031 6.77841 40.6811 7.01989C40.3591 7.25663 40.1461 7.55492 40.0419 7.91477L37.2436 7.6875C37.3857 7.02462 37.665 6.4517 38.0817 5.96875C38.4983 5.48106 39.0357 5.10701 39.6939 4.84659C40.3568 4.58144 41.1238 4.44886 41.995 4.44886C42.6011 4.44886 43.1811 4.51989 43.7351 4.66193C44.2938 4.80398 44.7886 5.02415 45.2195 5.32244C45.6551 5.62074 45.9983 6.00426 46.2493 6.47301C46.5002 6.93703 46.6257 7.49337 46.6257 8.14205V15.5H43.7564V13.9872H43.6712C43.496 14.3281 43.2616 14.6288 42.968 14.8892C42.6745 15.1449 42.3217 15.3461 41.9098 15.4929C41.4979 15.6349 41.022 15.706 40.4822 15.706ZM41.3487 13.6179C41.7938 13.6179 42.1868 13.5303 42.5277 13.3551C42.8686 13.1752 43.1361 12.9337 43.3303 12.6307C43.5244 12.3277 43.6214 11.9844 43.6214 11.6009V10.4432C43.5268 10.5047 43.3965 10.5616 43.2308 10.6136C43.0698 10.661 42.8875 10.706 42.6839 10.7486C42.4804 10.7865 42.2768 10.822 42.0732 10.8551C41.8696 10.8835 41.6849 10.9096 41.5192 10.9332C41.1641 10.9853 40.8539 11.0682 40.5888 11.1818C40.3236 11.2955 40.1177 11.4493 39.9709 11.6435C39.8241 11.8329 39.7507 12.0696 39.7507 12.3537C39.7507 12.7656 39.8999 13.0805 40.1982 13.2983C40.5012 13.5114 40.8847 13.6179 41.3487 13.6179ZM51.9986 9.19318V15.5H48.973V4.59091H51.8565V6.51562H51.9844C52.2259 5.88116 52.6307 5.37926 53.1989 5.00994C53.767 4.63589 54.456 4.44886 55.2656 4.44886C56.0232 4.44886 56.6837 4.61458 57.2472 4.94602C57.8106 5.27746 58.2486 5.75095 58.5611 6.36648C58.8736 6.97727 59.0298 7.70644 59.0298 8.55398V15.5H56.0043V9.09375C56.009 8.42614 55.8385 7.9053 55.4929 7.53125C55.1473 7.15246 54.6714 6.96307 54.0653 6.96307C53.6581 6.96307 53.2983 7.05066 52.9858 7.22585C52.678 7.40104 52.4366 7.65672 52.2614 7.9929C52.0909 8.32434 52.0033 8.72443 51.9986 9.19318ZM71.1161 5.65625C71.0167 5.31061 70.877 5.00521 70.6971 4.74006C70.5172 4.47017 70.297 4.2429 70.0366 4.05824C69.7809 3.86884 69.4873 3.72443 69.1559 3.625C68.8292 3.52557 68.467 3.47585 68.0692 3.47585C67.3259 3.47585 66.6725 3.66051 66.109 4.02983C65.5503 4.39915 65.1147 4.93655 64.8022 5.64205C64.4897 6.3428 64.3335 7.19981 64.3335 8.21307C64.3335 9.22633 64.4873 10.0881 64.7951 10.7983C65.1029 11.5085 65.5385 12.0507 66.1019 12.4247C66.6654 12.794 67.3306 12.9787 68.0977 12.9787C68.7937 12.9787 69.3879 12.8556 69.8803 12.6094C70.3775 12.3584 70.7563 12.0057 71.0167 11.5511C71.2818 11.0966 71.4144 10.5592 71.4144 9.93892L72.0394 10.0312H68.2894V7.71591H74.3761V9.5483C74.3761 10.8267 74.1062 11.9252 73.5664 12.8438C73.0266 13.7576 72.2833 14.4631 71.3363 14.9602C70.3893 15.4527 69.305 15.6989 68.0835 15.6989C66.7198 15.6989 65.5219 15.3982 64.4897 14.7969C63.4575 14.1908 62.6526 13.3314 62.0749 12.2188C61.502 11.1013 61.2156 9.77557 61.2156 8.24148C61.2156 7.0625 61.386 6.01136 61.7269 5.08807C62.0726 4.16004 62.5555 3.37405 63.1758 2.73011C63.796 2.08617 64.5181 1.59612 65.342 1.25994C66.1658 0.923768 67.0584 0.755681 68.0195 0.755681C68.8434 0.755681 69.6104 0.87642 70.3207 1.1179C71.0309 1.35464 71.6606 1.69081 72.2099 2.12642C72.7638 2.56203 73.216 3.08049 73.5664 3.68182C73.9168 4.27841 74.1417 4.93655 74.2411 5.65625H71.1161ZM90.0526 8.22727C90.0526 9.81345 89.7519 11.1629 89.1506 12.2756C88.554 13.3883 87.7396 14.2382 86.7074 14.8253C85.6799 15.4077 84.5246 15.6989 83.2415 15.6989C81.9489 15.6989 80.7888 15.4053 79.7614 14.8182C78.7339 14.2311 77.9219 13.3812 77.3253 12.2685C76.7287 11.1558 76.4304 9.80871 76.4304 8.22727C76.4304 6.6411 76.7287 5.29167 77.3253 4.17898C77.9219 3.06629 78.7339 2.21875 79.7614 1.63636C80.7888 1.04924 81.9489 0.755681 83.2415 0.755681C84.5246 0.755681 85.6799 1.04924 86.7074 1.63636C87.7396 2.21875 88.554 3.06629 89.1506 4.17898C89.7519 5.29167 90.0526 6.6411 90.0526 8.22727ZM86.9347 8.22727C86.9347 7.19981 86.7808 6.33333 86.473 5.62784C86.17 4.92235 85.7415 4.38731 85.1875 4.02273C84.6335 3.65814 83.9848 3.47585 83.2415 3.47585C82.4981 3.47585 81.8494 3.65814 81.2955 4.02273C80.7415 4.38731 80.3106 4.92235 80.0028 5.62784C79.6998 6.33333 79.5483 7.19981 79.5483 8.22727C79.5483 9.25473 79.6998 10.1212 80.0028 10.8267C80.3106 11.5322 80.7415 12.0672 81.2955 12.4318C81.8494 12.7964 82.4981 12.9787 83.2415 12.9787C83.9848 12.9787 84.6335 12.7964 85.1875 12.4318C85.7415 12.0672 86.17 11.5322 86.473 10.8267C86.7808 10.1212 86.9347 9.25473 86.9347 8.22727ZM98.4664 16.42C97.7264 16.42 97.2264 15.72 97.2264 14.82C97.2264 14.32 97.4064 13.56 97.7664 12.54C98.1264 11.5 98.3064 10.5 98.3064 9.46C97.4264 10 96.7664 10.56 96.2664 11.12C95.2664 12.24 94.2864 13.34 93.2464 13.34C92.6064 13.34 92.0864 12.84 92.0864 12.24C92.0864 11.58 92.6264 10.92 93.8064 10.6C94.3864 10.44 95.0464 10.26 95.7864 10.12C96.5064 9.98 97.3064 9.66 98.1464 9.18C97.2864 8.7 96.4664 8.38 95.7064 8.22C94.2064 7.9 93.0064 7.64 92.4864 7.04C92.2264 6.74 92.0864 6.42 92.0864 6.08C92.0864 5.48 92.5664 5.02 93.2664 5.02C94.3264 5.02 95.5664 6.42 96.4464 7.42C96.8864 7.92 97.5064 8.42 98.3064 8.9V8.64C98.3064 7.84 98.2464 7.18 98.0864 6.7C97.7664 5.74 97.2664 4.24 97.2664 3.54C97.2664 2.62 97.7864 1.94 98.5064 1.94C99.2064 1.94 99.7464 2.58 99.7464 3.54C99.7464 4.02 99.5664 4.8 99.2064 5.86C98.8464 6.92 98.6664 7.94 98.6664 8.9C99.8064 8.18 99.6664 8.26 100.646 7.32C101.586 6.28 102.246 5.64 102.606 5.4C102.986 5.14 103.366 5.02 103.766 5.02C104.406 5.02 104.886 5.46 104.886 6.08C104.886 6.76 104.386 7.34 103.226 7.72C102.666 7.9 102.006 8.06 101.266 8.22C100.506 8.38 99.7064 8.7 98.8264 9.18C99.6864 9.66 100.466 9.96 101.206 10.12C102.666 10.44 103.906 10.72 104.466 11.3C104.746 11.6 104.886 11.9 104.886 12.24C104.886 12.84 104.406 13.34 103.706 13.34C102.526 13.34 101.006 11.46 100.426 10.8C100.146 10.48 99.5464 10.02 98.6664 9.46V9.72C98.6664 10.58 98.8464 11.54 99.1864 12.58C99.5264 13.62 99.7064 14.36 99.7064 14.82C99.7064 15.76 99.1664 16.42 98.4664 16.42Z" fill="#D63939"/>
</svg>
